<?xml version="1.0" encoding="UTF-8"?><svg id="Layer_1" xmlns="http://www.w3.org/2000/svg" viewBox="0 0 110.6 98.62"><defs><style>.cls-1{fill:#da4093;}</style></defs><path class="cls-1" d="M87.14,3.66c8.07,13.99,15.6,27.03,23.46,40.66H63.74c7.77-13.5,15.27-26.54,23.4-40.66Z"/><path class="cls-1" d="M23.39,3.69c8.03,13.92,15.55,26.94,23.44,40.61H0C7.75,30.83,15.32,17.7,23.39,3.69Z"/><path class="cls-1" d="M55.27,58.18c8,13.85,15.51,26.86,23.35,40.44H31.96c7.72-13.39,15.28-26.51,23.31-40.44Z"/><path class="cls-1" d="M46.72,54.25c-7.79,13.54-15.29,26.58-23.3,40.48C15.48,81,7.9,67.88,.02,54.25H46.72Z"/><path class="cls-1" d="M87.15,94.75c-8-13.87-15.48-26.84-23.3-40.41h46.59c-7.7,13.35-15.23,26.42-23.29,40.41Z"/><path class="cls-1" d="M55.28,40.28C47.33,26.49,39.86,13.54,32.05,0h46.41c-7.66,13.32-15.17,26.36-23.18,40.28Z"/></svg>